<svg width="28" height="26" viewBox="0 0 28 26" fill="none" xmlns="http://www.w3.org/2000/svg">
<g clip-path="url(#clip0)">
<path d="M27.5269 4.79264C27.3894 4.66027 27.1603 4.61613 26.977 4.66027L26.0604 4.96921C26.6103 4.35139 26.977 3.68942 27.2061 3.0716C27.2978 2.85095 27.2519 2.67444 27.1144 2.54201C26.977 2.40964 26.7478 2.3655 26.5645 2.45373C25.2813 2.98332 24.1814 3.42463 23.2649 3.68937C23.2649 3.73351 23.219 3.68937 23.1732 3.68937C22.4399 3.29221 20.6526 2.40959 19.3695 2.40959C16.1157 2.45373 13.5035 5.10158 13.5035 8.32311V8.49962C8.73737 7.61701 6.1252 6.29308 3.28384 3.42458L2.82566 2.98327L2.55068 3.51286C0.992534 6.38136 2.0924 8.98507 3.87969 10.7503C3.0548 10.6179 2.50484 10.3531 2.00072 9.95597C1.81742 9.8236 1.58828 9.77946 1.35914 9.91183C1.17584 10.0001 1.08416 10.2649 1.13 10.4855C1.77158 12.5596 3.37557 14.2366 5.11701 15.2516C4.29213 15.2516 3.60471 15.1633 2.91728 14.722C2.73398 14.6337 2.459 14.6337 2.2757 14.7662C2.0924 14.8986 2.00072 15.1192 2.0924 15.3398C2.91728 17.5905 4.52127 18.782 7.08766 19.091C5.75865 19.8412 4.0172 20.459 1.31335 20.5032C1.03837 20.5032 0.809232 20.6797 0.717607 20.9003C0.62593 21.1651 0.717607 21.3858 0.900909 21.5623C2.55073 22.8421 6.21693 23.5923 10.7539 23.5923C18.8196 23.5923 25.4189 16.6638 25.4189 8.1466V8.01422C26.4271 7.52877 27.252 6.60202 27.6644 5.32223C27.7102 5.14567 27.6644 4.92502 27.5269 4.79264ZM24.7772 7.30807L24.5022 7.39635V8.1466C24.5022 16.1784 18.3154 22.7097 10.7539 22.7097C6.58348 22.7097 3.78801 22.0478 2.2757 21.3416C5.43783 21.121 7.27096 20.1501 8.69164 19.091L9.83734 18.2966H8.4625C5.85033 18.2966 4.24634 17.5905 3.32978 15.9136C4.15466 16.1784 5.02539 16.1784 5.98779 16.1342C6.35439 16.0901 6.72105 16.0901 7.08766 16.0901L7.22512 15.2075C5.48367 14.722 3.4214 13.2216 2.41316 11.1916C3.32973 11.5888 4.33791 11.6771 5.25448 11.6771H6.67516L5.52951 10.8827C4.56711 10.2207 1.72579 7.8818 3.10064 4.52785C6.03363 7.30807 8.82916 8.58785 13.8702 9.47047L14.4202 9.55875V8.32311C14.4202 5.58703 16.6199 3.33635 19.3696 3.29221C20.4236 3.24807 22.1651 4.17482 22.6692 4.43962C22.9441 4.57199 23.2191 4.61613 23.4941 4.5279C24.1815 4.30725 25.0064 3.99831 25.9229 3.64528C25.5105 4.30725 24.9605 4.92507 24.2273 5.4988C24.044 5.63117 23.9982 5.89596 24.0899 6.11662C24.1815 6.33727 24.4565 6.42555 24.6856 6.33727L26.4729 5.76359C26.1521 6.33722 25.6479 6.99918 24.7772 7.30807Z" fill="black"/>
</g>
<defs>
<clipPath id="clip0">
<rect width="27" height="26" fill="white" transform="translate(0.681641)"/>
</clipPath>
</defs>
</svg>
